<svg xmlns="http://www.w3.org/2000/svg" xmlns:xlink="http://www.w3.org/1999/xlink" fill="none" version="1.1" width="41.666664123535156" height="39.58333206176758" viewBox="0 0 41.666664123535156 39.58333206176758"><g><path d="M31.25,35.4167L10.4167,35.4167L10.4167,37.5C10.4167,38.6506,9.48393,39.5833,8.33333,39.5833L4.16667,39.5833C3.01607,39.5833,2.08333,38.6506,2.08333,37.5L2.08333,18.75L0,18.75L0,10.4167L2.08333,10.4167L2.08333,4.16667C2.08333,1.86548,3.94881,0,6.25,0L35.4167,0C37.7179,0,39.5833,1.86548,39.5833,4.16667L39.5833,10.4167L41.6667,10.4167L41.6667,18.75L39.5833,18.75L39.5833,37.5C39.5833,38.6506,38.6506,39.5833,37.5,39.5833L33.3333,39.5833C32.1827,39.5833,31.25,38.6506,31.25,37.5L31.25,35.4167ZM6.25,4.16667L6.25,18.75L35.4167,18.75L35.4167,4.16667L6.25,4.16667ZM11.4583,31.25C13.1842,31.25,14.5833,29.8509,14.5833,28.125C14.5833,26.3991,13.1842,25,11.4583,25C9.73244,25,8.33333,26.3991,8.33333,28.125C8.33333,29.8509,9.73244,31.25,11.4583,31.25ZM30.2083,31.25C31.9342,31.25,33.3333,29.8509,33.3333,28.125C33.3333,26.3991,31.9342,25,30.2083,25C28.4824,25,27.0833,26.3991,27.0833,28.125C27.0833,29.8509,28.4824,31.25,30.2083,31.25Z" fill="#000000" fill-opacity="1"/></g></svg>