<svg xmlns="http://www.w3.org/2000/svg" xmlns:xlink="http://www.w3.org/1999/xlink" fill="none" version="1.1" width="50" height="50" viewBox="0 0 50 50"><defs><clipPath id="master_svg0_53_2686"><rect x="0" y="0" width="50" height="50" rx="0"/></clipPath></defs><g clip-path="url(#master_svg0_53_2686)"><g><path d="M38.258325390625004,22.875043505859374C41.512525390625,26.127043505859376,41.512525390625,31.404143505859373,38.258325390625004,34.65834350585938L26.472925390625,46.44374350585937C25.660425390625,47.25624350585937,24.339525390625,47.25624350585937,23.527025390625,46.44374350585937L11.741645390625,34.65834350585938C8.487483390625,31.404143505859373,8.487483390625,26.127143505859376,11.741645390625,22.872943505859375C14.995815390625001,19.618743505859374,20.272925390624998,19.618743505859374,23.527025390625,22.872943505859375L24.997925390625,24.345843505859374L26.472925390625,22.872943505859375C29.727025390625,19.618743505859374,35.004125390625,19.618743505859374,38.258325390625004,22.872943505859375L38.258325390625004,22.875043505859374ZM25.000025390624998,2.083343505859375C29.604125390625,2.083343505859375,33.333325390625,5.812513505859375,33.333325390625,10.416673505859375C33.333325390625,15.020843505859375,29.604125390625,18.750043505859374,25.000025390624998,18.750043505859374C20.395825390625,18.750043505859374,16.666645390625,15.020843505859375,16.666645390625,10.416673505859375C16.666645390625,5.812513505859375,20.395825390625,2.083343505859375,25.000025390624998,2.083343505859375Z" fill="#000000" fill-opacity="1"/></g></g></svg>